<svg version="1.1" xmlns="http://www.w3.org/2000/svg" xmlns:xlink="http://www.w3.org/1999/xlink" width="828" height="452"><defs/><g><g transform="translate(-478,-598) scale(1,1)"><path fill="#C0C0C0" stroke="none" d="M 887 843 C 887 730.3339008 980.1247616 639 1095 639 C 1209.8752384 639 1303 730.3339008 1303 843 C 1303 955.6660992 1209.8752384 1047 1095 1047 C 980.1247616 1047 887 955.6660992 887 843 Z" opacity="0.2"/></g><g transform="translate(-478,-598) scale(1,1)"><path fill="#ffffff" stroke="none" d="M 880 836 C 880 723.3339008 973.1247616 632 1088 632 C 1202.8752384 632 1296 723.3339008 1296 836 C 1296 948.6660992 1202.8752384 1040 1088 1040 C 973.1247616 1040 880 948.6660992 880 836 Z"/></g><g transform="translate(-478,-598) scale(1,1)"><path fill="none" stroke="#000000" d="M 880 836 C 880 723.3339008 973.1247616 632 1088 632 C 1202.8752384 632 1296 723.3339008 1296 836 C 1296 948.6660992 1202.8752384 1040 1088 1040 C 973.1247616 1040 880 948.6660992 880 836 Z" stroke-miterlimit="10" stroke-dasharray="5"/></g><g transform="translate(-478,-598) scale(1,1)"><g><path fill="none" stroke="none"/><text fill="#000000" stroke="none" font-family="Arial" font-size="13px" font-style="normal" font-weight="bold" text-decoration="none" x="1075" y="651.5">后端</text></g></g><g transform="translate(-478,-598) scale(1,1)"><rect fill="#C0C0C0" stroke="none" x="879" y="687" width="123.8544921875" height="32" opacity="0.2"/></g><g transform="translate(-478,-598) scale(1,1)"><rect fill="#ffffff" stroke="none" x="872" y="680" width="123.8544921875" height="32"/></g><g transform="translate(-478,-598) scale(1,1)"><path fill="none" stroke="#000000" d="M 872 680 L 995.8544921875 680 L 995.8544921875 712 L 872 712 L 872 680 Z Z" stroke-miterlimit="10"/></g><g transform="translate(-478,-598) scale(1,1)"><rect fill="#ffffff" stroke="none" x="872" y="680" width="123.8544921875" height="32"/></g><g transform="translate(-478,-598) scale(1,1)"><path fill="none" stroke="#000000" d="M 872 680 L 995.8544921875 680 L 995.8544921875 712 L 872 712 L 872 680 Z Z" stroke-miterlimit="10"/></g><g transform="translate(-478,-598) scale(1,1)"><g><path fill="none" stroke="none"/><text fill="#000000" stroke="none" font-family="Arial" font-size="13px" font-style="normal" font-weight="bold" text-decoration="none" x="901.42724609375" y="699.5">命令解析器</text></g></g><g transform="translate(-478,-598) scale(1,1)"><rect fill="#C0C0C0" stroke="none" x="1047" y="727" width="112" height="32" opacity="0.2"/></g><g transform="translate(-478,-598) scale(1,1)"><rect fill="#ffffff" stroke="none" x="1040" y="720" width="112" height="32"/></g><g transform="translate(-478,-598) scale(1,1)"><path fill="none" stroke="#000000" d="M 1040 720 L 1152 720 L 1152 752 L 1040 752 L 1040 720 Z Z" stroke-miterlimit="10"/></g><g transform="translate(-478,-598) scale(1,1)"><rect fill="#ffffff" stroke="none" x="1040" y="720" width="112" height="32"/></g><g transform="translate(-478,-598) scale(1,1)"><path fill="none" stroke="#000000" d="M 1040 720 L 1152 720 L 1152 752 L 1040 752 L 1040 720 Z Z" stroke-miterlimit="10"/></g><g transform="translate(-478,-598) scale(1,1)"><g><path fill="none" stroke="none"/><text fill="#000000" stroke="none" font-family="Arial" font-size="13px" font-style="normal" font-weight="bold" text-decoration="none" x="1063.5" y="739.5">命令执行器</text></g></g><g transform="translate(-478,-598) scale(1,1)"><rect fill="#C0C0C0" stroke="none" x="1055" y="807" width="95" height="32" opacity="0.2"/></g><g transform="translate(-478,-598) scale(1,1)"><rect fill="#ffffff" stroke="none" x="1048" y="800" width="95" height="32"/></g><g transform="translate(-478,-598) scale(1,1)"><path fill="none" stroke="#000000" d="M 1048 800 L 1143 800 L 1143 832 L 1048 832 L 1048 800 Z Z" stroke-miterlimit="10"/></g><g transform="translate(-478,-598) scale(1,1)"><rect fill="#ffffff" stroke="none" x="1048" y="800" width="95" height="32"/></g><g transform="translate(-478,-598) scale(1,1)"><path fill="none" stroke="#000000" d="M 1048 800 L 1143 800 L 1143 832 L 1048 832 L 1048 800 Z Z" stroke-miterlimit="10"/></g><g transform="translate(-478,-598) scale(1,1)"><g><path fill="none" stroke="none"/><text fill="#000000" stroke="none" font-family="Arial" font-size="13px" font-style="normal" font-weight="bold" text-decoration="none" x="1069.5" y="819.5">系统管理</text></g></g><g transform="translate(-478,-598) scale(1,1)"><rect fill="#C0C0C0" stroke="none" x="1183" y="807" width="96" height="32" opacity="0.2"/></g><g transform="translate(-478,-598) scale(1,1)"><rect fill="#ffffff" stroke="none" x="1176" y="800" width="96" height="32"/></g><g transform="translate(-478,-598) scale(1,1)"><path fill="none" stroke="#000000" d="M 1176 800 L 1272 800 L 1272 832 L 1176 832 L 1176 800 Z Z" stroke-miterlimit="10"/></g><g transform="translate(-478,-598) scale(1,1)"><rect fill="#ffffff" stroke="none" x="1176" y="800" width="96" height="32"/></g><g transform="translate(-478,-598) scale(1,1)"><path fill="none" stroke="#000000" d="M 1176 800 L 1272 800 L 1272 832 L 1176 832 L 1176 800 Z Z" stroke-miterlimit="10"/></g><g transform="translate(-478,-598) scale(1,1)"><g><path fill="none" stroke="none"/><text fill="#000000" stroke="none" font-family="Arial" font-size="13px" font-style="normal" font-weight="bold" text-decoration="none" x="1198" y="819.5">查询引擎</text></g></g><g transform="translate(-478,-598) scale(1,1)"><path fill="none" stroke="#000000" d="M 996 696 L 1096 696 L 1096 720" stroke-miterlimit="10" stroke-dasharray="3"/></g><g transform="translate(-478,-598) scale(1,1)"><path fill="none" stroke="#000000" d="M 1091.7904822439841 709.8373251423759 L 1096 720 L 1100.2095177560159 709.8373251423759" stroke-miterlimit="10"/></g><g transform="translate(-478,-598) scale(1,1)"><g><path fill="none" stroke="none"/><text fill="#000000" stroke="none" font-family="Arial" font-size="13px" font-style="normal" font-weight="normal" text-decoration="none" x="1007.5" y="687.5">+生成</text></g></g><g transform="translate(-478,-598) scale(1,1)"><path fill="none" stroke="#000000" d="M 1096 752 L 1096 800" stroke-miterlimit="10" stroke-dasharray="3"/></g><g transform="translate(-478,-598) scale(1,1)"><path fill="none" stroke="#000000" d="M 1091.7904822439841 789.8373251423759 L 1096 800 L 1100.2095177560159 789.8373251423759" stroke-miterlimit="10"/></g><g transform="translate(-478,-598) scale(1,1)"><g><path fill="none" stroke="none"/><text fill="#000000" stroke="none" font-family="Arial" font-size="13px" font-style="normal" font-weight="normal" text-decoration="none" x="1103.5" y="772.5">+调用</text></g></g><g transform="translate(-478,-598) scale(1,1)"><path fill="none" stroke="#000000" d="M 1096 752 L 1096 776 L 1224 776 L 1224 800" stroke-miterlimit="10" stroke-dasharray="3"/></g><g transform="translate(-478,-598) scale(1,1)"><path fill="none" stroke="#000000" d="M 1219.7904822439841 789.8373251423759 L 1224 800 L 1228.2095177560159 789.8373251423759" stroke-miterlimit="10"/></g><g transform="translate(-478,-598) scale(1,1)"><rect fill="#C0C0C0" stroke="none" x="1055" y="863" width="96" height="32" opacity="0.2"/></g><g transform="translate(-478,-598) scale(1,1)"><rect fill="#ffffff" stroke="none" x="1048" y="856" width="96" height="32"/></g><g transform="translate(-478,-598) scale(1,1)"><path fill="none" stroke="#000000" d="M 1048 856 L 1144 856 L 1144 888 L 1048 888 L 1048 856 Z Z" stroke-miterlimit="10"/></g><g transform="translate(-478,-598) scale(1,1)"><rect fill="#ffffff" stroke="none" x="1048" y="856" width="96" height="32"/></g><g transform="translate(-478,-598) scale(1,1)"><path fill="none" stroke="#000000" d="M 1048 856 L 1144 856 L 1144 888 L 1048 888 L 1048 856 Z Z" stroke-miterlimit="10"/></g><g transform="translate(-478,-598) scale(1,1)"><g><path fill="none" stroke="none"/><text fill="#000000" stroke="none" font-family="Arial" font-size="13px" font-style="normal" font-weight="bold" text-decoration="none" x="1070" y="875.5">记录管理</text></g></g><g transform="translate(-478,-598) scale(1,1)"><rect fill="#C0C0C0" stroke="none" x="1183" y="863" width="95" height="31" opacity="0.2"/></g><g transform="translate(-478,-598) scale(1,1)"><rect fill="#ffffff" stroke="none" x="1176" y="856" width="95" height="31"/></g><g transform="translate(-478,-598) scale(1,1)"><path fill="none" stroke="#000000" d="M 1176 856 L 1271 856 L 1271 887 L 1176 887 L 1176 856 Z Z" stroke-miterlimit="10"/></g><g transform="translate(-478,-598) scale(1,1)"><rect fill="#ffffff" stroke="none" x="1176" y="856" width="95" height="31"/></g><g transform="translate(-478,-598) scale(1,1)"><path fill="none" stroke="#000000" d="M 1176 856 L 1271 856 L 1271 887 L 1176 887 L 1176 856 Z Z" stroke-miterlimit="10"/></g><g transform="translate(-478,-598) scale(1,1)"><g><path fill="none" stroke="none"/><text fill="#000000" stroke="none" font-family="Arial" font-size="13px" font-style="normal" font-weight="bold" text-decoration="none" x="1197.5" y="875.5">索引管理</text></g></g><g transform="translate(-478,-598) scale(1,1)"><rect fill="#C0C0C0" stroke="none" x="1119" y="935" width="96" height="31" opacity="0.2"/></g><g transform="translate(-478,-598) scale(1,1)"><rect fill="#ffffff" stroke="none" x="1112" y="928" width="96" height="31"/></g><g transform="translate(-478,-598) scale(1,1)"><path fill="none" stroke="#000000" d="M 1112 928 L 1208 928 L 1208 959 L 1112 959 L 1112 928 Z Z" stroke-miterlimit="10"/></g><g transform="translate(-478,-598) scale(1,1)"><rect fill="#ffffff" stroke="none" x="1112" y="928" width="96" height="31"/></g><g transform="translate(-478,-598) scale(1,1)"><path fill="none" stroke="#000000" d="M 1112 928 L 1208 928 L 1208 959 L 1112 959 L 1112 928 Z Z" stroke-miterlimit="10"/></g><g transform="translate(-478,-598) scale(1,1)"><g><path fill="none" stroke="none"/><text fill="#000000" stroke="none" font-family="Arial" font-size="13px" font-style="normal" font-weight="bold" text-decoration="none" x="1127.5" y="947.5">缓存页管理</text></g></g><g transform="translate(-478,-598) scale(1,1)"><rect fill="#C0C0C0" stroke="none" x="927" y="807" width="113.7236328125" height="31" opacity="0.2"/></g><g transform="translate(-478,-598) scale(1,1)"><rect fill="#ffffff" stroke="none" x="920" y="800" width="113.7236328125" height="31"/></g><g transform="translate(-478,-598) scale(1,1)"><path fill="none" stroke="#000000" d="M 920 800 L 1033.7236328125 800 L 1033.7236328125 831 L 920 831 L 920 800 Z Z" stroke-miterlimit="10"/></g><g transform="translate(-478,-598) scale(1,1)"><rect fill="#ffffff" stroke="none" x="920" y="800" width="113.7236328125" height="31"/></g><g transform="translate(-478,-598) scale(1,1)"><path fill="none" stroke="#000000" d="M 920 800 L 1033.7236328125 800 L 1033.7236328125 831 L 920 831 L 920 800 Z Z" stroke-miterlimit="10"/></g><g transform="translate(-478,-598) scale(1,1)"><g><path fill="none" stroke="none"/><text fill="#000000" stroke="none" font-family="Arial" font-size="13px" font-style="normal" font-weight="bold" text-decoration="none" x="926.667724609375" y="819.5">HTML表格生成器</text></g></g><g transform="translate(-478,-598) scale(1,1)"><path fill="none" stroke="#000000" d="M 1096 832 L 1096 856" stroke-miterlimit="10" stroke-dasharray="3"/></g><g transform="translate(-478,-598) scale(1,1)"><path fill="none" stroke="#000000" d="M 1091.7904822439841 845.8373251423759 L 1096 856 L 1100.2095177560159 845.8373251423759" stroke-miterlimit="10"/></g><g transform="translate(-478,-598) scale(1,1)"><g><path fill="none" stroke="none"/><text fill="#000000" stroke="none" font-family="Arial" font-size="13px" font-style="normal" font-weight="normal" text-decoration="none" x="1103.5" y="848.5">+调用</text></g></g><g transform="translate(-478,-598) scale(1,1)"><path fill="none" stroke="#000000" d="M 1224 832 L 1224 856" stroke-miterlimit="10" stroke-dasharray="3"/></g><g transform="translate(-478,-598) scale(1,1)"><path fill="none" stroke="#000000" d="M 1219.7904822439841 845.8373251423759 L 1224 856 L 1228.2095177560159 845.8373251423759" stroke-miterlimit="10"/></g><g transform="translate(-478,-598) scale(1,1)"><g><path fill="none" stroke="none"/><text fill="#000000" stroke="none" font-family="Arial" font-size="13px" font-style="normal" font-weight="normal" text-decoration="none" x="1231.5" y="849.5">+调用</text></g></g><g transform="translate(-478,-598) scale(1,1)"><path fill="none" stroke="#000000" d="M 1096 752 L 1096 776 L 976 776 L 976 800" stroke-miterlimit="10" stroke-dasharray="3"/></g><g transform="translate(-478,-598) scale(1,1)"><path fill="none" stroke="#000000" d="M 971.790482243984 789.8373251423759 L 976 800 L 980.209517756016 789.8373251423759" stroke-miterlimit="10"/></g><g transform="translate(-478,-598) scale(1,1)"><path fill="none" stroke="#000000" d="M 1224 887 L 1224 904 L 1160 904 L 1160 928" stroke-miterlimit="10" stroke-dasharray="3"/></g><g transform="translate(-478,-598) scale(1,1)"><path fill="none" stroke="#000000" d="M 1155.7904822439841 917.8373251423759 L 1160 928 L 1164.2095177560159 917.8373251423759" stroke-miterlimit="10"/></g><g transform="translate(-478,-598) scale(1,1)"><path fill="none" stroke="#000000" d="M 1096 888 L 1096 904 L 1160 904 L 1160 928" stroke-miterlimit="10" stroke-dasharray="3"/></g><g transform="translate(-478,-598) scale(1,1)"><path fill="none" stroke="#000000" d="M 1155.7904822439841 917.8373251423759 L 1160 928 L 1164.2095177560159 917.8373251423759" stroke-miterlimit="10"/></g><g transform="translate(-478,-598) scale(1,1)"><g><path fill="none" stroke="none"/><text fill="#000000" stroke="none" font-family="Arial" font-size="13px" font-style="normal" font-weight="normal" text-decoration="none" x="1171.5" y="923.5">+调用</text></g></g><g transform="translate(-478,-598) scale(1,1)"><rect fill="#ffffff" stroke="none" x="873" y="768" width="14" height="14"/></g><g transform="translate(-478,-598) scale(1,1)"><path fill="none" stroke="#000000" d="M 873 768 L 887 768 L 887 782 L 873 782 L 873 768 Z Z" stroke-miterlimit="10"/></g><g transform="translate(-478,-598) scale(1,1)"><g><path fill="none" stroke="none"/><text fill="#000000" stroke="none" font-family="Arial" font-size="13px" font-style="normal" font-weight="normal" text-decoration="none" x="838.805908203125" y="764">HTML表格文件</text></g></g><g transform="translate(-478,-598) scale(1,1)"><rect fill="#C0C0C0" stroke="none" x="991" y="935" width="96" height="32" opacity="0.2"/></g><g transform="translate(-478,-598) scale(1,1)"><rect fill="#ffffff" stroke="none" x="984" y="928" width="96" height="32"/></g><g transform="translate(-478,-598) scale(1,1)"><path fill="none" stroke="#000000" d="M 984 928 L 1080 928 L 1080 960 L 984 960 L 984 928 Z Z" stroke-miterlimit="10"/></g><g transform="translate(-478,-598) scale(1,1)"><rect fill="#ffffff" stroke="none" x="984" y="928" width="96" height="32"/></g><g transform="translate(-478,-598) scale(1,1)"><path fill="none" stroke="#000000" d="M 984 928 L 1080 928 L 1080 960 L 984 960 L 984 928 Z Z" stroke-miterlimit="10"/></g><g transform="translate(-478,-598) scale(1,1)"><g><path fill="none" stroke="none"/><text fill="#000000" stroke="none" font-family="Arial" font-size="13px" font-style="normal" font-weight="bold" text-decoration="none" x="999.5" y="947.5">基础工具库</text></g></g><g transform="translate(-478,-598) scale(1,1)"><path fill="none" stroke="#000000" d="M 1096 888 L 1096 904 L 1032 904 L 1032 928" stroke-miterlimit="10" stroke-dasharray="3"/></g><g transform="translate(-478,-598) scale(1,1)"><path fill="none" stroke="#000000" d="M 1027.7904822439841 917.8373251423759 L 1032 928 L 1036.2095177560159 917.8373251423759" stroke-miterlimit="10"/></g><g transform="translate(-478,-598) scale(1,1)"><g><path fill="none" stroke="none"/><text fill="#000000" stroke="none" font-family="Arial" font-size="13px" font-style="normal" font-weight="normal" text-decoration="none" x="1039.5" y="923.5">+调用</text></g></g><g transform="translate(-478,-598) scale(1,1)"><path fill="none" stroke="#000000" d="M 976 831 L 976 904 L 1032 904 L 1032 928" stroke-miterlimit="10" stroke-dasharray="3"/></g><g transform="translate(-478,-598) scale(1,1)"><path fill="none" stroke="#000000" d="M 1027.7904822439841 917.8373251423759 L 1032 928 L 1036.2095177560159 917.8373251423759" stroke-miterlimit="10"/></g><g transform="translate(-478,-598) scale(1,1)"><path fill="none" stroke="#000000" d="M 920 816 L 904 816 L 904 776 L 887 776" stroke-miterlimit="10" stroke-dasharray="3"/></g><g transform="translate(-478,-598) scale(1,1)"><path fill="none" stroke="#000000" d="M 897.1626748576241 771.790482243984 L 887 776 L 897.1626748576241 780.209517756016" stroke-miterlimit="10"/></g><g transform="translate(-478,-598) scale(1,1)"><g><path fill="none" stroke="none"/><text fill="#000000" stroke="none" font-family="Arial" font-size="13px" font-style="normal" font-weight="normal" text-decoration="none" x="910.5" y="795.5">+写入</text></g></g><g transform="translate(-478,-598) scale(1,1)"><path fill="#C0C0C0" stroke="none" d="M 495 763 C 495 681.2618496 561.2618496 615 643 615 C 724.7381504 615 791 681.2618496 791 763 C 791 844.7381504 724.7381504 911 643 911 C 561.2618496 911 495 844.7381504 495 763 Z" opacity="0.2"/></g><g transform="translate(-478,-598) scale(1,1)"><path fill="#ffffff" stroke="none" d="M 488 756 C 488 674.2618496 554.2618496 608 636 608 C 717.7381504 608 784 674.2618496 784 756 C 784 837.7381504 717.7381504 904 636 904 C 554.2618496 904 488 837.7381504 488 756 Z"/></g><g transform="translate(-478,-598) scale(1,1)"><path fill="none" stroke="#000000" d="M 488 756 C 488 674.2618496 554.2618496 608 636 608 C 717.7381504 608 784 674.2618496 784 756 C 784 837.7381504 717.7381504 904 636 904 C 554.2618496 904 488 837.7381504 488 756 Z" stroke-miterlimit="10" stroke-dasharray="5"/></g><g transform="translate(-478,-598) scale(1,1)"><g><path fill="none" stroke="none"/><text fill="#000000" stroke="none" font-family="Arial" font-size="13px" font-style="normal" font-weight="bold" text-decoration="none" x="623" y="627.5">前端</text></g></g><g transform="translate(-478,-598) scale(1,1)"><rect fill="#C0C0C0" stroke="none" x="671" y="727" width="96" height="32" opacity="0.2"/></g><g transform="translate(-478,-598) scale(1,1)"><rect fill="#ffffff" stroke="none" x="664" y="720" width="96" height="32"/></g><g transform="translate(-478,-598) scale(1,1)"><path fill="none" stroke="#000000" d="M 664 720 L 760 720 L 760 752 L 664 752 L 664 720 Z Z" stroke-miterlimit="10"/></g><g transform="translate(-478,-598) scale(1,1)"><rect fill="#ffffff" stroke="none" x="664" y="720" width="96" height="32"/></g><g transform="translate(-478,-598) scale(1,1)"><path fill="none" stroke="#000000" d="M 664 720 L 760 720 L 760 752 L 664 752 L 664 720 Z Z" stroke-miterlimit="10"/></g><g transform="translate(-478,-598) scale(1,1)"><g><path fill="none" stroke="none"/><text fill="#000000" stroke="none" font-family="Arial" font-size="13px" font-style="normal" font-weight="bold" text-decoration="none" x="679.5" y="739.5">视图控制器</text></g></g><g transform="translate(-478,-598) scale(1,1)"><rect fill="#C0C0C0" stroke="none" x="519" y="759" width="113" height="32" opacity="0.2"/></g><g transform="translate(-478,-598) scale(1,1)"><rect fill="#ffffff" stroke="none" x="512" y="752" width="113" height="32"/></g><g transform="translate(-478,-598) scale(1,1)"><path fill="none" stroke="#000000" d="M 512 752 L 625 752 L 625 784 L 512 784 L 512 752 Z Z" stroke-miterlimit="10"/></g><g transform="translate(-478,-598) scale(1,1)"><rect fill="#ffffff" stroke="none" x="512" y="752" width="113" height="32"/></g><g transform="translate(-478,-598) scale(1,1)"><path fill="none" stroke="#000000" d="M 512 752 L 625 752 L 625 784 L 512 784 L 512 752 Z Z" stroke-miterlimit="10"/></g><g transform="translate(-478,-598) scale(1,1)"><g><path fill="none" stroke="none"/><text fill="#000000" stroke="none" font-family="Arial" font-size="13px" font-style="normal" font-weight="bold" text-decoration="none" x="516.5" y="771.5">数据库文件树视图</text></g></g><g transform="translate(-478,-598) scale(1,1)"><rect fill="#C0C0C0" stroke="none" x="671" y="799" width="96" height="32" opacity="0.2"/></g><g transform="translate(-478,-598) scale(1,1)"><rect fill="#ffffff" stroke="none" x="664" y="792" width="96" height="32"/></g><g transform="translate(-478,-598) scale(1,1)"><path fill="none" stroke="#000000" d="M 664 792 L 760 792 L 760 824 L 664 824 L 664 792 Z Z" stroke-miterlimit="10"/></g><g transform="translate(-478,-598) scale(1,1)"><rect fill="#ffffff" stroke="none" x="664" y="792" width="96" height="32"/></g><g transform="translate(-478,-598) scale(1,1)"><path fill="none" stroke="#000000" d="M 664 792 L 760 792 L 760 824 L 664 824 L 664 792 Z Z" stroke-miterlimit="10"/></g><g transform="translate(-478,-598) scale(1,1)"><g><path fill="none" stroke="none"/><text fill="#000000" stroke="none" font-family="Arial" font-size="13px" font-style="normal" font-weight="bold" text-decoration="none" x="673" y="811.5">命令编辑视图</text></g></g><g transform="translate(-478,-598) scale(1,1)"><rect fill="#C0C0C0" stroke="none" x="519" y="703" width="112" height="32" opacity="0.2"/></g><g transform="translate(-478,-598) scale(1,1)"><rect fill="#ffffff" stroke="none" x="512" y="696" width="112" height="32"/></g><g transform="translate(-478,-598) scale(1,1)"><path fill="none" stroke="#000000" d="M 512 696 L 624 696 L 624 728 L 512 728 L 512 696 Z Z" stroke-miterlimit="10"/></g><g transform="translate(-478,-598) scale(1,1)"><rect fill="#ffffff" stroke="none" x="512" y="696" width="112" height="32"/></g><g transform="translate(-478,-598) scale(1,1)"><path fill="none" stroke="#000000" d="M 512 696 L 624 696 L 624 728 L 512 728 L 512 696 Z Z" stroke-miterlimit="10"/></g><g transform="translate(-478,-598) scale(1,1)"><g><path fill="none" stroke="none"/><text fill="#000000" stroke="none" font-family="Arial" font-size="13px" font-style="normal" font-weight="bold" text-decoration="none" x="529" y="715.5">查询结果视图</text></g></g><g transform="translate(-478,-598) scale(1,1)"><rect fill="#ffffff" stroke="none" x="777" y="688" width="14" height="14"/></g><g transform="translate(-478,-598) scale(1,1)"><path fill="none" stroke="#000000" d="M 777 688 L 791 688 L 791 702 L 777 702 L 777 688 Z Z" stroke-miterlimit="10"/></g><g transform="translate(-478,-598) scale(1,1)"><g><path fill="none" stroke="none"/><text fill="#000000" stroke="none" font-family="Arial" font-size="13px" font-style="normal" font-weight="normal" text-decoration="none" x="743.77001953125" y="683">Java本地接口</text></g></g><g transform="translate(-478,-598) scale(1,1)"><path fill="none" stroke="#000000" d="M 664 736 L 640 736 L 640 768 L 625 768" stroke-miterlimit="10" stroke-dasharray="3"/></g><g transform="translate(-478,-598) scale(1,1)"><path fill="none" stroke="#000000" d="M 635.1626748576241 763.790482243984 L 625 768 L 635.1626748576241 772.209517756016" stroke-miterlimit="10"/></g><g transform="translate(-478,-598) scale(1,1)"><g><path fill="none" stroke="none"/><text fill="#000000" stroke="none" font-family="Arial" font-size="13px" font-style="normal" font-weight="normal" text-decoration="none" x="599.5" y="747.5">+更新</text></g></g><g transform="translate(-478,-598) scale(1,1)"><path fill="none" stroke="#000000" d="M 664 736 L 640 736 L 640 712 L 624 712" stroke-miterlimit="10" stroke-dasharray="3"/></g><g transform="translate(-478,-598) scale(1,1)"><path fill="none" stroke="#000000" d="M 634.1626748576241 707.790482243984 L 624 712 L 634.1626748576241 716.209517756016" stroke-miterlimit="10"/></g><g transform="translate(-478,-598) scale(1,1)"><path fill="none" stroke="#000000" d="M 791 696 L 872 696" stroke-miterlimit="10" stroke-dasharray="3"/></g><g transform="translate(-478,-598) scale(1,1)"><path fill="none" stroke="#000000" d="M 861.8373251423759 700.209517756016 L 872 696 L 861.8373251423758 691.790482243984" stroke-miterlimit="10"/></g><g transform="translate(-478,-598) scale(1,1)"><g><path fill="none" stroke="none"/><text fill="#000000" stroke="none" font-family="Arial" font-size="13px" font-style="normal" font-weight="normal" text-decoration="none" x="799.5" y="715.5">+接口绑定</text></g></g><g transform="translate(-478,-598) scale(1,1)"><path fill="none" stroke="#000000" d="M 712 752 L 712 775 L 873 775" stroke-miterlimit="10" stroke-dasharray="3"/></g><g transform="translate(-478,-598) scale(1,1)"><path fill="none" stroke="#000000" d="M 862.8373251423759 779.209517756016 L 873 775 L 862.8373251423758 770.790482243984" stroke-miterlimit="10"/></g><g transform="translate(-478,-598) scale(1,1)"><path fill="none" stroke="#000000" d="M 712 720 L 712 695 L 777 695" stroke-miterlimit="10" stroke-dasharray="3"/></g><g transform="translate(-478,-598) scale(1,1)"><path fill="none" stroke="#000000" d="M 766.8373251423759 699.209517756016 L 777 695 L 766.8373251423758 690.790482243984" stroke-miterlimit="10"/></g><g transform="translate(-478,-598) scale(1,1)"><g><path fill="none" stroke="none"/><text fill="#000000" stroke="none" font-family="Arial" font-size="13px" font-style="normal" font-weight="normal" text-decoration="none" x="671.5" y="708.5">+调用</text></g></g><g transform="translate(-478,-598) scale(1,1)"><path fill="none" stroke="#000000" d="M 712 752 L 712 792" stroke-miterlimit="10" stroke-dasharray="3"/></g><g transform="translate(-478,-598) scale(1,1)"><path fill="none" stroke="#000000" d="M 707.790482243984 781.8373251423759 L 712 792 L 716.209517756016 781.8373251423759" stroke-miterlimit="10"/></g><g transform="translate(-478,-598) scale(1,1)"><g><path fill="none" stroke="none"/><text fill="#000000" stroke="none" font-family="Arial" font-size="13px" font-style="normal" font-weight="normal" text-decoration="none" x="719.5" y="772.5">+读取</text></g></g></g></svg>